<svg width="37" height="21" viewBox="0 0 37 21" fill="none" xmlns="http://www.w3.org/2000/svg">
<rect x="1" y="7.27209" width="11.875" height="11.875" rx="5.9375" stroke="#003C73" stroke-width="2"/>
<rect x="24.125" y="7.27209" width="11.875" height="11.875" rx="5.9375" stroke="#003C73" stroke-width="2"/>
<path d="M16.7125 13.6389L13.9227 5.8276C13.8995 5.76248 13.9477 5.69397 14.0169 5.69397H24.618C24.707 5.69397 24.7517 5.80168 24.6887 5.86468L16.8774 13.676C16.8255 13.7279 16.7372 13.708 16.7125 13.6389Z" stroke="#003C73" stroke-width="2"/>
<rect x="12.0625" y="0.990845" width="4.78125" height="1.3125" rx="0.65625" fill="#003C73" stroke="#003C73"/>
<rect x="29.7035" y="6.94203" width="4.14281" height="1.07995" rx="0.539976" transform="rotate(-89.0545 29.7035 6.94203)" fill="#003C73" stroke="#003C73"/>
<path d="M27.7046 1.14731C27.8995 0.901625 28.2567 0.86045 28.5024 1.05535L30.4781 2.6226C30.7238 2.8175 30.765 3.17466 30.5701 3.42035C30.3752 3.66604 30.018 3.70722 29.7723 3.51232L27.7966 1.94507C27.5509 1.75017 27.5098 1.393 27.7046 1.14731Z" fill="#003C73" stroke="#003C73"/>
</svg>
